<svg width="470" height="46" viewBox="0 0 470 46" fill="none" xmlns="http://www.w3.org/2000/svg">
<g clip-path="url(#clip0_1032_37829)">
<mask id="mask0_1032_37829" style="mask-type:luminance" maskUnits="userSpaceOnUse" x="134" y="0" width="202" height="46">
<path d="M336 0H134V46H336V0Z" fill="white"/>
</mask>
<g mask="url(#mask0_1032_37829)">
<path d="M150.143 8.53662C146.628 8.56829 143.247 9.88744 140.639 12.2446C138.031 14.6017 136.377 17.8334 135.989 21.3283C135.919 21.9159 135.882 22.507 135.879 23.0988C135.845 26.9234 137.33 30.605 140.008 33.3341C142.687 36.0632 146.339 37.6163 150.161 37.6517H150.172C153.994 37.6196 157.647 36.0698 160.328 33.3431C163.009 30.6164 164.497 26.9361 164.466 23.1115V23.0988C164.467 21.1183 164.071 19.1577 163.301 17.3333C162.217 14.7334 160.39 12.5116 158.05 10.9466C155.709 9.38162 152.958 8.54323 150.143 8.53662Z" fill="#E2BA7C"/>
<path d="M134 0C161.127 2.1957 171.744 8.49391 173.875 15.8195C176.888 26.2329 162.813 38.7796 154.71 44.886C155.995 44.084 157.546 43.1259 159.394 42.0142C180.001 29.4837 185.685 20.7367 183.486 14.576C178.746 0.577817 134 0 134 0Z" fill="white"/>
<path d="M210.384 12.6565H210.258C209.278 11.1826 207.885 10.0302 206.254 9.34332C204.483 8.65576 202.595 8.32166 200.696 8.35988C198.666 8.32151 196.648 8.6913 194.764 9.44733C193.137 10.1112 191.668 11.1075 190.448 12.3722C189.291 13.5944 188.393 15.0388 187.809 16.618C187.211 18.2156 186.906 19.9079 186.908 21.6138C186.899 23.3771 187.162 25.1312 187.688 26.8142C188.179 28.4094 189.017 29.8765 190.14 31.1108C191.331 32.3876 192.795 33.3788 194.423 34.0103C196.405 34.7614 198.514 35.1216 200.633 35.0712C202.532 35.0795 204.417 34.7371 206.191 34.0612C207.843 33.4721 209.266 32.376 210.257 30.9294H210.383V34.4541C210.435 35.3194 210.315 36.1866 210.028 37.0046C209.741 37.8226 209.293 38.575 208.712 39.2176C207.995 39.886 207.147 40.3966 206.221 40.7167C205.295 41.0368 204.312 41.1591 203.336 41.0759C201.915 41.1056 200.503 40.8339 199.194 40.2785C198.602 40.0121 198.078 39.6154 197.661 39.1179C197.244 38.6204 196.945 38.0351 196.786 37.4056H187.965C188.057 38.8352 188.591 40.2009 189.492 41.3139C190.412 42.4255 191.552 43.3334 192.842 43.98C194.254 44.6925 195.758 45.2066 197.311 45.5077C198.896 45.831 200.509 45.9959 202.126 46C204.251 46.0293 206.374 45.8384 208.46 45.4303C210.031 45.1205 211.555 44.6069 212.993 43.9025C214.106 43.3571 215.115 42.6206 215.973 41.7265C216.676 40.9739 217.26 40.119 217.706 39.191C218.106 38.3538 218.389 37.4651 218.545 36.5504C218.682 35.7551 218.754 34.9501 218.761 34.1432V9.08446H210.384V12.6565ZM209.922 24.9062C209.617 25.7765 209.142 26.5772 208.524 27.2614C207.866 27.9783 207.06 28.5436 206.162 28.9186C205.12 29.3506 204 29.5623 202.872 29.5403C201.692 29.5821 200.519 29.3333 199.458 28.8158C198.59 28.371 197.836 27.7333 197.254 26.9517C196.691 26.1845 196.29 25.3108 196.076 24.3839C195.846 23.4435 195.73 22.479 195.729 21.511C195.724 20.5389 195.86 19.5712 196.132 18.6381C196.389 17.7433 196.834 16.9136 197.436 16.2043C198.05 15.4865 198.813 14.9121 199.672 14.5217C200.68 14.0838 201.77 13.8715 202.868 13.9C204.094 13.8638 205.312 14.0933 206.441 14.5726C207.354 14.9757 208.153 15.5981 208.768 16.3846C209.36 17.1698 209.784 18.0688 210.012 19.0252C210.262 20.0418 210.387 21.0848 210.385 22.1316C210.39 23.0756 210.234 24.0136 209.923 24.9051" fill="white"/>
<path d="M249.814 12.7087C248.542 11.3485 246.997 10.2722 245.281 9.55033C243.21 8.70954 240.989 8.30436 238.755 8.36003C236.887 8.33853 235.033 8.67227 233.289 9.34347C231.652 9.98574 230.231 11.0812 229.193 12.5018H229.068V9.08461H220.69V45.2744H229.507V32.5382H229.63C230.74 33.876 232.17 34.9098 233.788 35.5428C235.524 36.2421 237.379 36.5954 239.251 36.5829C241.371 36.6289 243.478 36.2306 245.436 35.4134C247.102 34.7019 248.603 33.6525 249.843 32.3313C251.019 31.0634 251.918 29.5648 252.484 27.9307C253.064 26.2666 253.357 24.5159 253.351 22.7534C253.359 20.8976 253.066 19.0529 252.484 17.2908C251.928 15.5915 251.018 14.0297 249.814 12.7087ZM244.164 25.7304C243.936 26.7077 243.503 27.6255 242.893 28.423C242.263 29.2251 241.456 29.8715 240.536 30.3124C239.385 30.791 238.15 31.0374 236.903 31.0374C235.656 31.0374 234.421 30.791 233.27 30.3124C232.345 29.8734 231.534 29.2263 230.901 28.4218C230.288 27.6221 229.844 26.706 229.597 25.7292C229.324 24.6901 229.189 23.6197 229.194 22.5454C229.194 21.4733 229.319 20.4049 229.566 19.3617C229.789 18.358 230.222 17.4129 230.836 16.5881C231.465 15.7706 232.272 15.1067 233.195 14.6467C234.329 14.1114 235.574 13.854 236.827 13.8955C238.06 13.8585 239.284 14.116 240.397 14.6467C241.331 15.1153 242.147 15.7865 242.788 16.6113C243.415 17.4366 243.869 18.3799 244.124 19.3848C244.392 20.416 244.528 21.4774 244.527 22.5431C244.53 23.6154 244.405 24.6842 244.155 25.7269" fill="white"/>
<path d="M301.04 10.5347C299.922 9.73806 298.656 9.17449 297.316 8.87751C295.768 8.52198 294.184 8.34823 292.595 8.35979C290.577 8.30855 288.58 8.77186 286.79 9.7061C285.308 10.4803 283.99 11.5353 282.909 12.8124C282.094 11.2394 280.736 10.016 279.087 9.36981C277.317 8.67927 275.43 8.33635 273.529 8.35979C271.595 8.32394 269.677 8.71289 267.909 9.49924C266.294 10.2463 264.866 11.3423 263.725 12.7084H263.602V9.08437H255.286V35.8512H264.095V20.3194C264.048 19.2175 264.282 18.1216 264.776 17.1357C265.171 16.3933 265.736 15.7547 266.424 15.2716C267.016 14.8616 267.679 14.5631 268.379 14.391C268.928 14.2514 269.49 14.1739 270.056 14.1599C271.154 14.0979 272.25 14.3021 273.252 14.7551C273.926 15.1002 274.471 15.6538 274.806 16.3337C275.122 17.0169 275.301 17.756 275.332 18.5086C275.373 19.3036 275.394 20.0802 275.395 20.8383V35.8512H284.211V20.9435C284.211 20.1189 284.284 19.2958 284.43 18.4843C284.562 17.7059 284.858 16.9645 285.298 16.3094C285.759 15.6486 286.378 15.1145 287.1 14.7562C288.042 14.3229 289.073 14.1189 290.11 14.1611C291.119 14.118 292.126 14.2946 293.061 14.6788C293.731 14.9789 294.301 15.464 294.705 16.0771C295.091 16.7049 295.325 17.414 295.389 18.148C295.474 18.9928 295.515 19.8414 295.513 20.6904V35.8512H304.331V17.9388C304.373 16.4173 304.076 14.9056 303.463 13.5128C302.917 12.3322 302.083 11.3083 301.037 10.5358" fill="white"/>
<path d="M335.129 24.1252C334.527 23.259 333.743 22.5345 332.833 22.0023C331.811 21.4044 330.715 20.9433 329.573 20.6305C328.351 20.2862 327.099 19.9926 325.816 19.7499C324.573 19.5096 323.351 19.2854 322.152 19.0774C320.953 18.8693 319.887 18.6382 318.953 18.384C318.145 18.1808 317.379 17.8391 316.688 17.374C316.419 17.2017 316.199 16.9641 316.047 16.6833C315.895 16.4026 315.817 16.088 315.819 15.7688C315.808 15.5265 315.846 15.2844 315.931 15.0574C316.016 14.8304 316.147 14.6234 316.316 14.449C316.66 14.1129 317.074 13.8565 317.528 13.6979C318.038 13.5178 318.57 13.4048 319.11 13.3616C319.69 13.31 320.229 13.2842 320.727 13.2842C322.131 13.253 323.526 13.5086 324.827 14.0353C325.392 14.2762 325.874 14.6759 326.216 15.186C326.557 15.696 326.744 16.2943 326.752 16.9082H335.135C335.033 15.4183 334.504 13.9893 333.613 12.7919C332.753 11.6953 331.661 10.8027 330.415 10.1778C329.035 9.4916 327.559 9.02007 326.037 8.7795C324.365 8.50068 322.672 8.36229 320.977 8.36579C319.272 8.36313 317.57 8.49295 315.885 8.75408C314.337 8.98057 312.83 9.43421 311.414 10.1004C310.143 10.6967 309.043 11.6051 308.217 12.741C307.375 13.9827 306.951 15.4608 307.007 16.9602C306.971 18.0202 307.277 19.0635 307.877 19.9371C308.483 20.7727 309.268 21.4625 310.174 21.956C311.201 22.5225 312.296 22.9574 313.432 23.2504C314.652 23.5793 315.905 23.864 317.189 24.1044C318.762 24.3817 320.169 24.6491 321.411 24.9064C322.475 25.1165 323.524 25.4018 324.548 25.7604C325.258 25.9951 325.92 26.3543 326.503 26.8213C326.716 26.9926 326.888 27.2094 327.005 27.4558C327.123 27.7022 327.185 27.9718 327.185 28.245C327.207 28.8386 327.008 29.4194 326.628 29.8756C326.242 30.3186 325.765 30.6733 325.229 30.9157C324.636 31.1855 324.01 31.377 323.367 31.4854C322.722 31.6034 322.066 31.6641 321.41 31.6668C320.565 31.6699 319.722 31.5831 318.895 31.408C318.143 31.2567 317.42 30.9859 316.754 30.606C316.149 30.2592 315.628 29.7815 315.231 29.2076C314.827 28.6037 314.621 27.8888 314.641 27.1622H306.255C306.282 28.7593 306.79 30.311 307.712 31.6148C308.616 32.8349 309.783 33.8348 311.128 34.5397C312.617 35.3164 314.221 35.8494 315.879 36.1183C317.684 36.4298 319.512 36.5844 321.343 36.5806C323.143 36.5835 324.941 36.4289 326.715 36.1183C328.349 35.8493 329.93 35.3252 331.402 34.5652C332.719 33.8826 333.857 32.8983 334.723 31.6923C335.605 30.3892 336.05 28.8391 335.993 27.2662C336.031 26.1578 335.728 25.0645 335.124 24.1344" fill="white"/>
</g>
</g>
<defs>
<clipPath id="clip0_1032_37829">
<rect width="202" height="46" fill="white" transform="translate(134)"/>
</clipPath>
</defs>
</svg>
