<svg width="110" height="25" viewBox="0 0 110 25" fill="none" xmlns="http://www.w3.org/2000/svg">
<g clip-path="url(#clip0_411_36152)">
<mask id="mask0_411_36152" style="mask-type:luminance" maskUnits="userSpaceOnUse" x="0" y="0" width="110" height="25">
<path d="M109.84 0H0V25H109.84V0Z" fill="white"/>
</mask>
<g mask="url(#mask0_411_36152)">
<path d="M8.77774 4.63867C6.86671 4.65589 5.02824 5.37281 3.61005 6.65386C2.19186 7.9349 1.29229 9.69124 1.08147 11.5907C1.04339 11.91 1.02347 12.2313 1.0218 12.5529C1.00306 14.6315 1.81067 16.6324 3.26702 18.1156C4.72338 19.5988 6.70921 20.4428 8.78779 20.4621H8.79344C10.872 20.4446 12.8586 19.6024 14.3162 18.1205C15.7739 16.6385 16.5832 14.6384 16.5663 12.5598V12.5529C16.567 11.4765 16.3515 10.411 15.9326 9.41948C15.3435 8.00649 14.3501 6.79896 13.0772 5.94844C11.8044 5.09791 10.3086 4.64226 8.77774 4.63867Z" fill="#E2BA7C"/>
<path d="M0 0C14.7507 1.19332 20.5238 4.61625 21.6826 8.59754C23.3212 14.257 15.6676 21.0759 11.2611 24.3945C11.9602 23.9587 12.8037 23.438 13.8086 22.8338C25.0138 16.0237 28.1045 11.2699 26.9087 7.92174C24.3311 0.314031 0 0 0 0Z" fill="#304D4A"/>
<path d="M41.535 6.87775H41.4666C40.9333 6.0767 40.176 5.45042 39.2891 5.0771C38.3262 4.70342 37.2995 4.52184 36.2668 4.54262C35.1629 4.52176 34.066 4.72273 33.0411 5.13362C32.1569 5.49445 31.3577 6.03587 30.6947 6.72325C30.0652 7.38745 29.577 8.17244 29.2595 9.03075C28.9344 9.89899 28.7684 10.8187 28.7697 11.7459C28.7647 12.7042 28.9077 13.6575 29.1936 14.5721C29.4609 15.4391 29.9162 16.2364 30.527 16.9073C31.1747 17.6012 31.9708 18.1398 32.8558 18.4831C33.9338 18.8913 35.0806 19.0871 36.2329 19.0596C37.2655 19.0642 38.2901 18.8781 39.2551 18.5107C40.1531 18.1906 40.9268 17.5949 41.4659 16.8087H41.5344V18.7243C41.563 19.1946 41.4973 19.6658 41.3412 20.1104C41.1852 20.555 40.9418 20.9639 40.6256 21.3131C40.236 21.6764 39.7746 21.9539 39.2711 22.1278C38.7676 22.3018 38.2333 22.3683 37.7026 22.323C36.9297 22.3392 36.1621 22.1915 35.4504 21.8897C35.1285 21.7449 34.8436 21.5293 34.6168 21.2589C34.3901 20.9886 34.2273 20.6704 34.1408 20.3283H29.3443C29.3943 21.1053 29.6845 21.8475 30.1746 22.4524C30.6747 23.0565 31.2949 23.55 31.996 23.9014C32.7642 24.2886 33.5821 24.568 34.4266 24.7317C35.2882 24.9074 36.1651 24.997 37.0444 24.9992C38.2001 25.0151 39.3543 24.9114 40.4887 24.6896C41.343 24.5212 42.1717 24.2421 42.9538 23.8593C43.5589 23.5629 44.1074 23.1626 44.5742 22.6766C44.9561 22.2676 45.2738 21.803 45.5163 21.2987C45.7339 20.8436 45.8876 20.3607 45.9729 19.8636C46.0469 19.4313 46.0862 18.9938 46.0903 18.5553V4.93641H41.535V6.87775ZM41.2838 13.5352C41.1181 14.0082 40.8597 14.4433 40.5238 14.8152C40.1659 15.2048 39.7277 15.5121 39.2394 15.7158C38.6727 15.9506 38.0635 16.0657 37.4501 16.0537C36.8083 16.0765 36.1708 15.9412 35.5935 15.6599C35.122 15.4182 34.712 15.0716 34.3952 14.6469C34.0893 14.2299 33.8714 13.7551 33.7546 13.2513C33.6298 12.7402 33.5666 12.2161 33.5662 11.69C33.5634 11.1617 33.6373 10.6357 33.7854 10.1286C33.925 9.64232 34.1668 9.1914 34.4944 8.8059C34.828 8.41579 35.243 8.10363 35.7104 7.89144C36.2581 7.65342 36.8512 7.53809 37.4482 7.55354C38.1145 7.5339 38.7772 7.65859 39.3908 7.91908C39.8873 8.13816 40.322 8.47643 40.6564 8.90388C40.9782 9.33061 41.2084 9.81918 41.3328 10.339C41.4684 10.8915 41.5365 11.4584 41.5356 12.0272C41.5383 12.5403 41.4533 13.0501 41.2844 13.5346" fill="#304D4A"/>
<path d="M62.9757 6.90716C62.284 6.16791 61.4439 5.583 60.5106 5.19066C59.3847 4.73371 58.1768 4.5135 56.962 4.54376C55.9465 4.53208 54.9379 4.71345 53.9901 5.07824C53.0996 5.4273 52.3269 6.02267 51.7623 6.79473H51.6945V4.93755H47.1392V24.6059H51.9332V17.6841H52.0004C52.6036 18.4111 53.3816 18.973 54.2614 19.317C55.2052 19.6971 56.2141 19.8891 57.2315 19.8823C58.3846 19.9073 59.5303 19.6908 60.5948 19.2467C61.5008 18.86 62.3169 18.2896 62.9914 17.5716C63.6306 16.8826 64.1196 16.0681 64.4272 15.18C64.7428 14.2756 64.9023 13.3241 64.8989 12.3663C64.903 11.3577 64.7437 10.3551 64.4272 9.39742C64.1252 8.47391 63.6305 7.62508 62.9757 6.90716ZM59.9033 13.9842C59.7791 14.5153 59.5436 15.0141 59.2124 15.4475C58.8694 15.8835 58.4308 16.2348 57.9305 16.4744C57.3044 16.7345 56.633 16.8684 55.9549 16.8684C55.2769 16.8684 54.6055 16.7345 53.9794 16.4744C53.4765 16.2358 53.0357 15.8841 52.6912 15.4469C52.3581 15.0123 52.1168 14.5144 51.9821 13.9835C51.8339 13.4188 51.7602 12.8371 51.763 12.2532C51.7631 11.6706 51.831 11.0899 51.9652 10.5229C52.0869 9.97746 52.3223 9.46382 52.6561 9.01556C52.9981 8.57124 53.4367 8.21044 53.9386 7.96042C54.5553 7.66953 55.2323 7.52959 55.9138 7.55218C56.5842 7.53206 57.2497 7.672 57.8552 7.96042C58.3626 8.21512 58.8067 8.57989 59.1552 9.02812C59.4961 9.47669 59.743 9.98934 59.8813 10.5355C60.0273 11.0959 60.1009 11.6728 60.1005 12.252C60.1022 12.8347 60.0343 13.4156 59.8982 13.9823" fill="#304D4A"/>
<path d="M90.8301 5.72511C90.2224 5.29216 89.5337 4.98587 88.8052 4.82447C87.9634 4.63125 87.102 4.53682 86.2383 4.5431C85.1411 4.51525 84.0548 4.76705 83.0817 5.27479C82.2756 5.69557 81.5589 6.26893 80.9714 6.96302C80.5283 6.10808 79.7898 5.44319 78.8932 5.09202C77.9303 4.71673 76.9042 4.53036 75.8709 4.5431C74.8192 4.52362 73.776 4.735 72.8148 5.16237C71.9368 5.56837 71.1599 6.16405 70.5399 6.90649H70.4727V4.93689H65.9507V19.4841H70.7409V11.0429C70.7152 10.444 70.8427 9.84844 71.1115 9.3126C71.3262 8.90916 71.633 8.56207 72.0071 8.29954C72.3295 8.07667 72.6898 7.91448 73.0704 7.82095C73.3687 7.74508 73.6746 7.70295 73.9823 7.69534C74.5792 7.66164 75.1754 7.7726 75.7202 8.01879C76.0868 8.20636 76.3831 8.50726 76.5649 8.87672C76.7372 9.24805 76.8346 9.64973 76.8513 10.0587C76.8735 10.4908 76.8848 10.9129 76.8852 11.3249V19.4841H81.6792V11.3821C81.6791 10.9339 81.7191 10.4866 81.7986 10.0455C81.87 9.62251 82.0308 9.21956 82.2702 8.86354C82.5209 8.50443 82.8578 8.21415 83.25 8.01942C83.7624 7.78391 84.3233 7.67307 84.8867 7.69597C85.4357 7.67254 85.9832 7.76854 86.4914 7.97734C86.8558 8.14046 87.166 8.40409 87.3858 8.7373C87.5954 9.0785 87.7227 9.46384 87.7576 9.86278C87.8038 10.3219 87.8262 10.7831 87.8248 11.2445V19.4841H92.6201V9.7491C92.6427 8.9222 92.4814 8.10059 92.1478 7.34363C91.8511 6.70202 91.3975 6.14556 90.8288 5.72574" fill="#304D4A"/>
<path d="M109.367 13.1118C109.04 12.641 108.613 12.2473 108.118 11.958C107.563 11.6331 106.967 11.3825 106.346 11.2125C105.681 11.0254 105 10.8658 104.303 10.7339C103.627 10.6033 102.963 10.4815 102.311 10.3684C101.659 10.2554 101.079 10.1298 100.571 9.99158C100.132 9.88118 99.715 9.69545 99.3393 9.44265C99.1933 9.34901 99.0733 9.21988 98.9907 9.06732C98.9081 8.91476 98.8656 8.74375 98.867 8.57027C98.8606 8.43861 98.8812 8.30703 98.9277 8.18366C98.9741 8.0603 99.0454 7.94777 99.1371 7.85303C99.3241 7.67037 99.5491 7.53101 99.7959 7.44479C100.074 7.34693 100.363 7.28549 100.656 7.26202C100.972 7.23397 101.265 7.21994 101.536 7.21994C102.299 7.203 103.058 7.34191 103.765 7.62818C104.072 7.75909 104.334 7.97634 104.52 8.25353C104.706 8.53072 104.807 8.8559 104.812 9.18954H109.37C109.315 8.37982 109.027 7.60318 108.542 6.95239C108.075 6.35645 107.481 5.87131 106.804 5.53171C106.053 5.15877 105.251 4.9025 104.423 4.77176C103.514 4.62022 102.593 4.54501 101.671 4.54691C100.744 4.54547 99.8188 4.61602 98.9028 4.75794C98.0608 4.88103 97.2416 5.12758 96.4716 5.48963C95.7803 5.81369 95.1822 6.30738 94.7331 6.92475C94.2752 7.59957 94.0447 8.40288 94.0749 9.21781C94.0557 9.79386 94.2217 10.3609 94.5484 10.8357C94.8778 11.2898 95.3044 11.6647 95.797 11.9329C96.3558 12.2408 96.951 12.4771 97.5688 12.6363C98.2324 12.8151 98.9135 12.9698 99.6119 13.1005C100.467 13.2512 101.232 13.3965 101.907 13.5364C102.486 13.6505 103.056 13.8056 103.613 14.0005C103.999 14.1281 104.359 14.3233 104.677 14.5771C104.792 14.6702 104.885 14.788 104.95 14.9219C105.014 15.0558 105.047 15.2024 105.047 15.3508C105.059 15.6735 104.951 15.9891 104.744 16.237C104.534 16.4778 104.275 16.6706 103.984 16.8023C103.661 16.9489 103.321 17.053 102.971 17.1119C102.62 17.176 102.264 17.209 101.907 17.2105C101.447 17.2122 100.989 17.165 100.54 17.0698C100.131 16.9876 99.7375 16.8405 99.3751 16.634C99.046 16.4455 98.7631 16.1859 98.5473 15.874C98.3275 15.5458 98.2153 15.1572 98.2264 14.7623H93.666C93.6809 15.6303 93.9571 16.4737 94.4586 17.1823C94.95 17.8453 95.5849 18.3888 96.3158 18.7719C97.1258 19.194 97.9981 19.4836 98.8997 19.6298C99.8808 19.7991 100.875 19.8831 101.87 19.881C102.85 19.8826 103.827 19.7986 104.792 19.6298C105.68 19.4836 106.54 19.1988 107.34 18.7857C108.057 18.4148 108.675 17.8798 109.146 17.2243C109.626 16.5161 109.868 15.6737 109.837 14.8189C109.858 14.2165 109.693 13.6223 109.364 13.1168" fill="#304D4A"/>
</g>
</g>
<defs>
<clipPath id="clip0_411_36152">
<rect width="109.84" height="25" fill="white"/>
</clipPath>
</defs>
</svg>
