<svg width="100" height="101" viewBox="0 0 100 101" fill="none" xmlns="http://www.w3.org/2000/svg">
<path opacity="0.3" d="M70.25 0.5H29.75C13.3195 0.5 0 13.8195 0 30.25V70.75C0 87.1805 13.3195 100.5 29.75 100.5H70.25C86.6805 100.5 100 87.1805 100 70.75V30.25C100 13.8195 86.6805 0.5 70.25 0.5Z" fill="#7E8299"/>
<path d="M28.9499 41.25C26.9721 41.25 25.0387 40.6635 23.3942 39.5647C21.7497 38.4659 20.468 36.9041 19.7111 35.0768C18.9542 33.2496 18.7562 31.2389 19.142 29.2991C19.5279 27.3593 20.4803 25.5775 21.8788 24.1789C23.2774 22.7804 25.0592 21.828 26.999 21.4422C28.9388 21.0563 30.9495 21.2543 32.7767 22.0112C34.604 22.7681 36.1658 24.0498 37.2646 25.6943C38.3634 27.3388 38.9499 29.2722 38.9499 31.25C38.9499 33.9022 37.8963 36.4457 36.021 38.3211C34.1456 40.1964 31.6021 41.25 28.9499 41.25ZM99.9999 67.45L88.5499 55.9C87.0531 54.3722 85.258 53.1685 83.2764 52.3637C81.2947 51.5589 79.1687 51.1703 77.0304 51.2218C74.8922 51.2734 72.7874 51.7641 70.8468 52.6635C68.9062 53.5629 67.1713 54.8518 65.7499 56.45L55.7499 67.3C54.7576 68.4122 53.5542 69.3161 52.2095 69.9592C50.8649 70.6023 49.4059 70.9719 47.9172 71.0463C46.4286 71.1207 44.9399 70.8986 43.5379 70.3928C42.1358 69.887 40.8482 69.1077 39.7499 68.1C36.987 65.5892 33.4175 64.1487 29.6858 64.0387C25.9541 63.9287 22.3059 65.1563 19.3999 67.5L1.8999 81.6C4.03715 87.1701 7.81574 91.9598 12.7354 95.3348C17.6551 98.7098 23.4838 100.511 29.4499 100.5H70.4999C78.3694 100.369 85.8722 97.1503 91.3906 91.5384C96.909 85.9264 100.001 78.3706 99.9999 70.5V67.45Z" fill="#7E8299"/>
</svg>
